<svg width="39" height="27" viewBox="0 0 39 27" fill="none" xmlns="http://www.w3.org/2000/svg">
<path d="M7.09375 26.784C5.47242 26.784 4.13908 26.4 3.09375 25.632C2.06975 24.864 1.31242 23.872 0.82175 22.656C0.352417 21.44 0.11775 20.1813 0.11775 18.88C0.11775 17.1947 0.37375 15.5093 0.88575 13.824C1.39775 12.1173 2.10175 10.496 2.99775 8.96C3.91508 7.424 4.94975 6.05866 6.10175 4.864C7.25375 3.66933 8.48042 2.73067 9.78175 2.048C11.1044 1.344 12.4164 0.991999 13.7178 0.991999C14.6564 0.991999 15.4458 1.216 16.0858 1.664C16.7258 2.09067 17.0458 2.83733 17.0458 3.904C17.0458 4.544 16.9284 5.25867 16.6938 6.048C16.4804 6.83733 16.1818 7.60533 15.7978 8.352C15.4351 9.07733 15.0191 9.67467 14.5498 10.144C14.0804 10.6133 13.6004 10.848 13.1098 10.848C12.8964 10.848 12.6724 10.7733 12.4378 10.624C12.2031 10.4747 11.9898 10.2187 11.7978 9.856C12.1178 9.49333 12.4804 9.056 12.8858 8.544C13.2911 8.01067 13.6751 7.456 14.0378 6.88C14.4004 6.28267 14.6991 5.70667 14.9338 5.152C15.1684 4.576 15.2858 4.07467 15.2858 3.648C15.2858 3.264 15.1791 2.96533 14.9658 2.752C14.7524 2.51733 14.3791 2.4 13.8458 2.4C12.9071 2.4 11.9364 2.752 10.9338 3.456C9.95242 4.16 9.00308 5.10933 8.08575 6.304C7.16842 7.47733 6.33642 8.8 5.58975 10.272C4.86442 11.7227 4.28842 13.2267 3.86175 14.784C3.43508 16.32 3.22175 17.7813 3.22175 19.168C3.22175 20.192 3.37108 21.1733 3.66975 22.112C3.98975 23.0293 4.49108 23.776 5.17375 24.352C5.85642 24.9493 6.75242 25.248 7.86175 25.248C9.01375 25.248 10.1551 24.928 11.2858 24.288C12.4378 23.648 13.4831 22.8053 14.4218 21.76C15.3818 20.7147 16.1498 19.5947 16.7257 18.4L17.5578 18.944C16.8111 20.3733 15.9151 21.6853 14.8698 22.88C13.8244 24.0533 12.6404 24.992 11.3178 25.696C10.0164 26.4213 8.60842 26.784 7.09375 26.784ZM23.2035 26.784C22.0728 26.6987 21.3262 26.4213 20.9635 25.952C20.6222 25.4827 20.4515 24.896 20.4515 24.192C20.4515 23.4027 20.5902 22.4533 20.8675 21.344C21.1448 20.2347 21.5075 19.0507 21.9555 17.792C22.4035 16.5333 22.8942 15.2853 23.4275 14.048C23.1928 14.0693 22.8195 14.1013 22.3075 14.144C21.8168 14.1867 21.3048 14.24 20.7715 14.304C20.2595 14.3467 19.8435 14.4 19.5235 14.464C19.5875 13.8027 19.8328 13.2907 20.2595 12.928C20.7075 12.544 21.2728 12.2667 21.9555 12.096C22.6595 11.9253 23.4168 11.8293 24.2275 11.808C24.7822 10.272 25.3475 8.77867 25.9235 7.328C26.5208 5.856 27.1182 4.512 27.7155 3.296C27.5875 3.27467 27.4382 3.264 27.2675 3.264C27.0968 3.24267 26.8622 3.232 26.5635 3.232C25.2622 3.232 24.2488 3.37067 23.5235 3.648C22.8195 3.92533 22.3288 4.32 22.0515 4.832C21.7955 5.344 21.6675 5.97333 21.6675 6.72C21.6675 7.25333 21.7208 7.744 21.8275 8.192C21.9342 8.61867 22.0942 9.088 22.3075 9.6C21.3048 9.42933 20.5902 9.10933 20.1635 8.64C19.7368 8.14933 19.5235 7.54133 19.5235 6.816C19.5235 5.70667 19.9288 4.72533 20.7395 3.872C21.5715 3.01867 22.6808 2.34667 24.0675 1.856C25.4755 1.36533 27.0542 1.12 28.8035 1.12C29.9342 1.12 31.0648 1.19467 32.1955 1.344C33.3262 1.49333 34.3822 1.568 35.3635 1.568C35.8968 1.568 36.4088 1.536 36.8995 1.472C37.3902 1.38667 37.9555 1.25867 38.5955 1.088C37.5715 2.21867 36.7288 2.976 36.0675 3.36C35.4275 3.744 34.7982 3.936 34.1795 3.936C33.6675 3.936 33.0062 3.872 32.1955 3.744C31.3848 3.59467 30.5102 3.488 29.5715 3.424C29.2942 4.10667 28.9955 4.896 28.6755 5.792C28.3555 6.688 28.0248 7.648 27.6835 8.672C27.3635 9.696 27.0328 10.752 26.6915 11.84C27.8008 11.9253 28.8035 12.0213 29.6995 12.128C30.5955 12.2347 31.5875 12.3093 32.6755 12.352C32.4195 12.6933 32.1528 12.9707 31.8755 13.184C31.6195 13.376 31.2675 13.5147 30.8195 13.6C30.3928 13.6853 29.7955 13.7493 29.0275 13.792C28.2808 13.8347 27.2995 13.8667 26.0835 13.888C25.9128 14.528 25.7315 15.1787 25.5395 15.84C25.3475 16.5013 25.1768 17.0667 25.0275 17.536C24.8995 18.0053 24.8142 18.2933 24.7715 18.4C24.1742 20.448 23.7582 22.1227 23.5235 23.424C23.3102 24.704 23.2035 25.824 23.2035 26.784Z" fill="#EDF2F4"/>
</svg>
