<svg width="38" height="38" viewBox="0 0 38 38" fill="none" xmlns="http://www.w3.org/2000/svg">
<path d="M13.3 18.525C11.989 18.525 10.925 19.589 10.925 20.9C10.925 22.211 11.989 23.275 13.3 23.275C14.611 23.275 15.675 22.211 15.675 20.9C15.675 19.589 14.611 18.525 13.3 18.525ZM24.7 18.525C23.389 18.525 22.325 19.589 22.325 20.9C22.325 22.211 23.389 23.275 24.7 23.275C26.011 23.275 27.075 22.211 27.075 20.9C27.075 19.589 26.011 18.525 24.7 18.525ZM19 0C8.512 0 0 8.512 0 19C0 29.488 8.512 38 19 38C29.488 38 38 29.488 38 19C38 8.512 29.488 0 19 0ZM19 34.2C10.621 34.2 3.8 27.379 3.8 19C3.8 18.449 3.838 17.898 3.895 17.366C8.379 15.371 11.932 11.704 13.794 7.163C17.233 12.027 22.895 15.2 29.298 15.2C30.78 15.2 32.205 15.029 33.573 14.706C33.972 16.055 34.2 17.499 34.2 19C34.2 27.379 27.379 34.2 19 34.2Z" fill="#EDF2F4"/>
</svg>
