<svg width="35" height="38" viewBox="0 0 35 38" fill="none" xmlns="http://www.w3.org/2000/svg">
<path d="M30.625 3.75H22.7875C22 1.575 19.9375 0 17.5 0C15.0625 0 13 1.575 12.2125 3.75H4.375C2.3125 3.75 0.625 5.4375 0.625 7.5V33.75C0.625 35.8125 2.3125 37.5 4.375 37.5H30.625C32.6875 37.5 34.375 35.8125 34.375 33.75V7.5C34.375 5.4375 32.6875 3.75 30.625 3.75ZM17.5 3.75C18.5312 3.75 19.375 4.59375 19.375 5.625C19.375 6.65625 18.5312 7.5 17.5 7.5C16.4688 7.5 15.625 6.65625 15.625 5.625C15.625 4.59375 16.4688 3.75 17.5 3.75ZM17.5 11.25C20.6125 11.25 23.125 13.7625 23.125 16.875C23.125 19.9875 20.6125 22.5 17.5 22.5C14.3875 22.5 11.875 19.9875 11.875 16.875C11.875 13.7625 14.3875 11.25 17.5 11.25ZM28.75 33.75H6.25V31.125C6.25 27.375 13.75 25.3125 17.5 25.3125C21.25 25.3125 28.75 27.375 28.75 31.125V33.75Z" fill="#EDF2F4"/>
</svg>
